<svg version="1.2" xmlns="http://www.w3.org/2000/svg" viewBox="0 0 535 535" width="535" height="535">
	<title>glitch_head_logo</title>
	<defs>
		<filter x="-50%" y="-50%" width="200%" height="200%" id="f1"> <feGaussianBlur stdDeviation="18"/> </filter>
	</defs>
	<style>
		.s0 { fill: none } 
		.s1 { opacity: .75;filter: url(#f1);fill: #9df1fd } 
		.s2 { opacity: .75;filter: url(#f1);fill: #82f3fc } 
		.s3 { opacity: .75;filter: url(#f1);fill: #95effc } 
		.s4 { opacity: .75;filter: url(#f1);fill: #a5f1fd } 
		.s5 { opacity: .75;filter: url(#f1);fill: #2ddefa } 
		.s6 { opacity: .75;filter: url(#f1);fill: #8ef4fc } 
		.s7 { opacity: .75;filter: url(#f1);fill: #76f4fc } 
		.s8 { opacity: .75;filter: url(#f1);fill: #83f0fc } 
		.s9 { opacity: .75;filter: url(#f1);fill: #51e7fb } 
		.s10 { opacity: .75;filter: url(#f1);fill: #2eeafa } 
		.s11 { opacity: .75;filter: url(#f1);fill: #8ef5fc } 
		.s12 { opacity: .75;filter: url(#f1);fill: #36e0fa } 
		.s13 { opacity: .75;filter: url(#f1);fill: #77ecfc } 
		.s14 { opacity: .75;filter: url(#f1);fill: #7debfc } 
		.s15 { opacity: .75;filter: url(#f1);fill: #71effc } 
		.s16 { opacity: .75;filter: url(#f1);fill: #3be7fb } 
		.s17 { opacity: .75;filter: url(#f1);fill: #4beffb } 
		.s18 { opacity: .75;filter: url(#f1);fill: #91f2fc } 
		.s19 { opacity: .75;filter: url(#f1);fill: #7feefc } 
		.s20 { opacity: .75;filter: url(#f1);fill: #54eefb } 
		.s21 { opacity: .75;filter: url(#f1);fill: #99f7fc } 
		.s22 { opacity: .75;filter: url(#f1);fill: #75eafc } 
		.s23 { opacity: .75;filter: url(#f1);fill: #6af2fb } 
		.s24 { opacity: .75;filter: url(#f1);fill: #6ef2fc } 
		.s25 { opacity: .75;filter: url(#f1);fill: #5deffb } 
		.s26 { opacity: .75;filter: url(#f1);fill: #35effa } 
		.s27 { opacity: .75;filter: url(#f1);fill: #9ef5fd } 
		.s28 { opacity: .75;filter: url(#f1);fill: #60eafb } 
		.s29 { opacity: .75;filter: url(#f1);fill: #84ecfc } 
		.s30 { opacity: .75;filter: url(#f1);fill: #5cedfb } 
		.s31 { opacity: .75;filter: url(#f1);fill: #3ef0fb } 
		.s32 { opacity: .75;filter: url(#f1);fill: #31eafa } 
		.s33 { opacity: .75;filter: url(#f1);fill: #91eefc } 
		.s34 { opacity: .75;filter: url(#f1);fill: #66f0fb } 
		.s35 { opacity: .75;filter: url(#f1);fill: #6ae8fb } 
		.s36 { opacity: .78;filter: url(#f1);fill: #0fc0cd } 
		.s37 { opacity: .82;filter: url(#f1);fill: #10c4da } 
		.s38 { opacity: .73;filter: url(#f1);fill: #0dadb9 } 
		.s39 { opacity: .77;filter: url(#f1);fill: #0eafc6 } 
		.s40 { opacity: .73;filter: url(#f1);fill: #0da3b9 } 
		.s41 { opacity: .73;filter: url(#f1);fill: #0dacb9 } 
		.s42 { opacity: .79;filter: url(#f1);fill: #0fb3cd } 
		.s43 { opacity: .78;filter: url(#f1);fill: #0fbacb } 
		.s44 { opacity: .75;filter: url(#f1);fill: #0eb3be } 
		.s45 { opacity: .73;filter: url(#f1);fill: #0daab9 } 
		.s46 { opacity: .73;filter: url(#f1);fill: #0dabb9 } 
		.s47 { opacity: .79;filter: url(#f1);fill: #0fbbce } 
		.s48 { opacity: .78;filter: url(#f1);fill: #0fb8c8 } 
		.s49 { opacity: .79;filter: url(#f1);fill: #0eb8ce } 
		.s50 { opacity: .73;filter: url(#f1);fill: #0ca2b8 } 
		.s51 { opacity: .75;filter: url(#f1);fill: #0db1c0 } 
		.s52 { opacity: .79;filter: url(#f1);fill: #0dc5d1 } 
		.s53 { opacity: .93;filter: url(#f1);fill: #26e3f0 } 
		.s54 { opacity: .75;filter: url(#f1);fill: #0baebf } 
		.s55 { opacity: .76;filter: url(#f1);fill: #0cb4c8 } 
		.s56 { opacity: .75;filter: url(#f1);fill: #0bb5c1 } 
		.s57 { opacity: .78;filter: url(#f1);fill: #0cc2ce } 
		.s58 { opacity: .75;filter: url(#f1);fill: #0bb6c3 } 
		.s59 { opacity: .76;filter: url(#f1);fill: #0ab8c6 } 
		.s60 { opacity: .76;filter: url(#f1);fill: #0ab3c5 } 
		.s61 { opacity: .76;filter: url(#f1);fill: #0abbc6 } 
		.s62 { opacity: .77;filter: url(#f1);fill: #09becc } 
		.s63 { opacity: .81;filter: url(#f1);fill: #0ac5d9 } 
		.s64 { opacity: .76;filter: url(#f1);fill: #0abcca } 
		.s65 { opacity: .76;filter: url(#f1);fill: #09b7ca } 
		.s66 { opacity: .91;filter: url(#f1);fill: #18e3f4 } 
		.s67 { opacity: .77;filter: url(#f1);fill: #09b7cb } 
		.s68 { opacity: .89;filter: url(#f1);fill: #13e2f5 } 
		.s69 { opacity: .78;filter: url(#f1);fill: #09c0cf } 
		.s70 { opacity: .78;filter: url(#f1);fill: #09c1cf } 
		.s71 { opacity: .78;filter: url(#f1);fill: #08c3d4 } 
		.s72 { opacity: .78;filter: url(#f1);fill: #08bfd4 } 
		.s73 { opacity: .86;filter: url(#f1);fill: #09d2f0 } 
		.s74 { opacity: .78;filter: url(#f1);fill: #08bcd2 } 
		.s75 { opacity: .79;filter: url(#f1);fill: #08bfd4 } 
		.s76 { opacity: .86;filter: url(#f1);fill: #08d3f2 } 
		.s77 { opacity: .92;filter: url(#f1);fill: #1cdff7 } 
		.s78 { opacity: .79;filter: url(#f1);fill: #07bbd6 } 
		.s79 { opacity: .8;filter: url(#f1);fill: #07c9da } 
		.s80 { opacity: .98;filter: url(#f1);fill: #48e8f9 } 
		.s81 { opacity: .97;filter: url(#f1);fill: #30e8f8 } 
		.s82 { opacity: .86;filter: url(#f1);fill: #07e2f2 } 
		.s83 { opacity: .81;filter: url(#f1);fill: #06c7de } 
		.s84 { opacity: .92;filter: url(#f1);fill: #1cebf8 } 
		.s85 { opacity: .81;filter: url(#f1);fill: #05c7df } 
		.s86 { opacity: .86;filter: url(#f1);fill: #06dff3 } 
		.s87 { opacity: .94;filter: url(#f1);fill: #22e1f8 } 
		.s88 { opacity: .81;filter: url(#f1);fill: #06c6de } 
		.s89 { opacity: .81;filter: url(#f1);fill: #05d1e0 } 
		.s90 { opacity: .81;filter: url(#f1);fill: #05c7e0 } 
		.s91 { opacity: .81;filter: url(#f1);fill: #05cbe0 } 
		.s92 { opacity: .98;filter: url(#f1);fill: #3beffa } 
		.s93 { opacity: .83;filter: url(#f1);fill: #05dae9 } 
		.s94 { opacity: .81;filter: url(#f1);fill: #05c2e1 } 
		.s95 { opacity: .85;filter: url(#f1);fill: #05daf3 } 
		.s96 { opacity: .82;filter: url(#f1);fill: #04cbe4 } 
		.s97 { opacity: .82;filter: url(#f1);fill: #04cde4 } 
		.s98 { opacity: .82;filter: url(#f1);fill: #05d1e6 } 
		.s99 { opacity: .82;filter: url(#f1);fill: #04c7e4 } 
		.s100 { opacity: .82;filter: url(#f1);fill: #04c6e5 } 
		.s101 { opacity: .82;filter: url(#f1);fill: #04d7e4 } 
		.s102 { opacity: .82;filter: url(#f1);fill: #04d5e4 } 
		.s103 { opacity: .82;filter: url(#f1);fill: #04d7e5 } 
		.s104 { opacity: .86;filter: url(#f1);fill: #05d6f5 } 
		.s105 { opacity: .82;filter: url(#f1);fill: #04c9e5 } 
		.s106 { opacity: .82;filter: url(#f1);fill: #04d5e5 } 
		.s107 { opacity: .91;filter: url(#f1);fill: #15defa } 
		.s108 { opacity: .82;filter: url(#f1);fill: #04d2e5 } 
		.s109 { opacity: .83;filter: url(#f1);fill: #04ceeb } 
		.s110 { opacity: .84;filter: url(#f1);fill: #04d7eb } 
		.s111 { opacity: .87;filter: url(#f1);fill: #05d8f9 } 
		.s112 { opacity: .86;filter: url(#f1);fill: #05d3f4 } 
		.s113 { opacity: .89;filter: url(#f1);fill: #0fdbfa } 
		.s114 { opacity: .98;filter: url(#f1);fill: #49ebfb } 
		.s115 { opacity: .98;filter: url(#f1);fill: #5feffb } 
		.s116 { opacity: .82;filter: url(#f1);fill: #04cbe5 } 
		.s117 { opacity: .93;filter: url(#f1);fill: #1be4fa } 
		.s118 { opacity: .87;filter: url(#f1);fill: #07e6f9 } 
		.s119 { opacity: .98;filter: url(#f1);fill: #3ce8fa } 
		.s120 { opacity: .89;filter: url(#f1);fill: #0be7f9 } 
		.s121 { opacity: .88;filter: url(#f1);fill: #08ddf9 } 
		.s122 { opacity: .88;filter: url(#f1);fill: #09e2f9 } 
		.s123 { opacity: .88;filter: url(#f1);fill: #0aeaf9 } 
		.s124 { opacity: .98;filter: url(#f1);fill: #30ecfa } 
		.s125 { opacity: .82;filter: url(#f1);fill: #05c7e3 } 
		.s126 { opacity: .81;filter: url(#f1);fill: #05c2e0 } 
		.s127 { opacity: .96;filter: url(#f1);fill: #28e8f9 } 
		.s128 { opacity: .92;filter: url(#f1);fill: #18daf9 } 
		.s129 { opacity: .81;filter: url(#f1);fill: #05c2df } 
		.s130 { opacity: .81;filter: url(#f1);fill: #06cdde } 
		.s131 { opacity: .81;filter: url(#f1);fill: #05d3e1 } 
		.s132 { opacity: .81;filter: url(#f1);fill: #06c3df } 
		.s133 { opacity: .84;filter: url(#f1);fill: #06d5eb } 
		.s134 { opacity: .8;filter: url(#f1);fill: #06c7dd } 
		.s135 { opacity: .81;filter: url(#f1);fill: #06cddf } 
		.s136 { opacity: .8;filter: url(#f1);fill: #07c8da } 
		.s137 { opacity: .8;filter: url(#f1);fill: #07c9d9 } 
		.s138 { opacity: .8;filter: url(#f1);fill: #06c5db } 
		.s139 { opacity: .93;filter: url(#f1);fill: #1ee0f7 } 
		.s140 { opacity: .97;filter: url(#f1);fill: #2fdef8 } 
		.s141 { opacity: .8;filter: url(#f1);fill: #07c3d8 } 
		.s142 { opacity: .79;filter: url(#f1);fill: #07c7d8 } 
		.s143 { opacity: .79;filter: url(#f1);fill: #08bfd5 } 
		.s144 { opacity: .78;filter: url(#f1);fill: #08bdd3 } 
		.s145 { opacity: .84;filter: url(#f1);fill: #08ddeb } 
		.s146 { opacity: .78;filter: url(#f1);fill: #08b9d2 } 
		.s147 { opacity: .84;filter: url(#f1);fill: #0ad5ea } 
		.s148 { opacity: .78;filter: url(#f1);fill: #08c4d2 } 
		.s149 { opacity: .82;filter: url(#f1);fill: #09c4e0 } 
		.s150 { opacity: .81;filter: url(#f1);fill: #09d0dd } 
		.s151 { opacity: .78;filter: url(#f1);fill: #08bbd2 } 
		.s152 { opacity: .8;filter: url(#f1);fill: #0abed7 } 
		.s153 { opacity: .87;filter: url(#f1);fill: #0ae3f2 } 
		.s154 { opacity: .82;filter: url(#f1);fill: #0bcce1 } 
		.s155 { opacity: .85;filter: url(#f1);fill: #0bd7ed } 
		.s156 { opacity: .83;filter: url(#f1);fill: #0bc7e3 } 
		.s157 { opacity: .81;filter: url(#f1);fill: #0ac8da } 
		.s158 { opacity: .78;filter: url(#f1);fill: #0bb6ce } 
		.s159 { opacity: .8;filter: url(#f1);fill: #0ac4d5 } 
		.s160 { opacity: .75;filter: url(#f1);fill: #0bacc3 } 
		.s161 { opacity: .77;filter: url(#f1);fill: #0bbfcb } 
		.s162 { opacity: .75;filter: url(#f1);fill: #0baac3 } 
		.s163 { opacity: .78;filter: url(#f1);fill: #0cb6ce } 
		.s164 { opacity: .87;filter: url(#f1);fill: #10d6f0 } 
		.s165 { opacity: .81;filter: url(#f1);fill: #0ec4d7 } 
		.s166 { opacity: .78;filter: url(#f1);fill: #0dbecb } 
		.s167 { opacity: .83;filter: url(#f1);fill: #0ec4df } 
		.s168 { opacity: .73;filter: url(#f1);fill: #0da8b6 } 
		.s169 { opacity: .85;filter: url(#f1);fill: #10d2e6 } 
		.s170 { opacity: .72;filter: url(#f1);fill: #0dabb5 } 
		.s171 { opacity: .73;filter: url(#f1);fill: #0da7b6 } 
		.s172 { opacity: .72;filter: url(#f1);fill: #0da2b5 } 
		.s173 { opacity: .73;filter: url(#f1);fill: #0da4b9 } 
		.s174 { opacity: .76;filter: url(#f1);fill: #0eb6c1 } 
		.s175 { opacity: .73;filter: url(#f1);fill: #0dafb9 } 
		.s176 { opacity: .73;filter: url(#f1);fill: #0da1b9 } 
		.s177 { opacity: .73;filter: url(#f1);fill: #0daeb9 } 
		.s178 { opacity: .77;filter: url(#f1);fill: #0eacc6 } 
		.s179 { opacity: .8;filter: url(#f1);fill: #0fbad1 } 
		.s180 { opacity: .73;filter: url(#f1);fill: #0da9b9 } 
		.s181 { opacity: .87;filter: url(#f1);fill: #11d4eb } 
		.s182 { opacity: .9;filter: url(#f1);fill: #5eebfb } 
		.s183 { opacity: .9;filter: url(#f1);fill: #80ebfc } 
		.s184 { opacity: .9;filter: url(#f1);fill: #90f4fc } 
		.s185 { opacity: .9;filter: url(#f1);fill: #67effb } 
		.s186 { opacity: .9;filter: url(#f1);fill: #5df3fb } 
		.s187 { opacity: .9;filter: url(#f1);fill: #52e4fb } 
		.s188 { opacity: .9;filter: url(#f1);fill: #37ecfa } 
		.s189 { opacity: .9;filter: url(#f1);fill: #52edfb } 
		.s190 { opacity: .9;filter: url(#f1);fill: #a2f3fd } 
		.s191 { opacity: .9;filter: url(#f1);fill: #7cf2fc } 
		.s192 { opacity: .9;filter: url(#f1);fill: #71eefc } 
		.s193 { opacity: .9;filter: url(#f1);fill: #acf7fd } 
		.s194 { opacity: .9;filter: url(#f1);fill: #91effc } 
		.s195 { opacity: .9;filter: url(#f1);fill: #92f2fc } 
		.s196 { opacity: .9;filter: url(#f1);fill: #68f0fb } 
		.s197 { opacity: .9;filter: url(#f1);fill: #adf5fd } 
		.s198 { opacity: .9;filter: url(#f1);fill: #9df5fd } 
		.s199 { opacity: .9;filter: url(#f1);fill: #5fe4fb } 
		.s200 { opacity: .9;filter: url(#f1);fill: #8bf6fc } 
		.s201 { opacity: .9;filter: url(#f1);fill: #82f2fc } 
		.s202 { opacity: .9;filter: url(#f1);fill: #9ef4fd } 
		.s203 { opacity: .9;filter: url(#f1);fill: #7ff1fc } 
		.s204 { opacity: .9;filter: url(#f1);fill: #92f7fc } 
		.s205 { opacity: .9;filter: url(#f1);fill: #7bedfc } 
		.s206 { opacity: .9;filter: url(#f1);fill: #60e9fb } 
		.s207 { opacity: .9;filter: url(#f1);fill: #76f1fc } 
		.s208 { opacity: .9;filter: url(#f1);fill: #6cf3fc } 
		.s209 { opacity: .9;filter: url(#f1);fill: #85ecfc } 
		.s210 { opacity: .9;filter: url(#f1);fill: #9bf1fc } 
		.s211 { opacity: .9;filter: url(#f1);fill: #47effb } 
		.s212 { opacity: .9;filter: url(#f1);fill: #74edfc } 
		.s213 { opacity: .9;filter: url(#f1);fill: #91eefc } 
		.s214 { opacity: .9;filter: url(#f1);fill: #59e5fb } 
		.s215 { opacity: .9;filter: url(#f1);fill: #a3f8fd } 
		.s216 { opacity: .9;filter: url(#f1);fill: #5ae4fb } 
		.s217 { opacity: .25;filter: url(#f1);fill: none;stroke: #7feef4;stroke-width: 6 } 
		.s218 { opacity: .17;filter: url(#f1);fill: none;stroke: #7feef4;stroke-width: 6 } 
		.s219 { opacity: .1;filter: url(#f1);fill: none;stroke: #7feef4;stroke-width: 6 } 
	</style>
	<path fill-rule="evenodd" class="s0" d="m-183-223h900v900h-900z"/>
	<g>
		<path fill-rule="evenodd" class="s1" d="m415 211.7h57.4c1.8 0 3.2 1.4 3.2 3.2 0 1.8-1.4 3.3-3.2 3.3h-57.4c-1.8 0-3.3-1.5-3.3-3.3 0-1.8 1.5-3.2 3.3-3.2z"/>
		<path fill-rule="evenodd" class="s2" d="m686.3 210.9h53.8c0.9 0 1.7 0.8 1.7 1.7 0 0.9-0.8 1.6-1.7 1.6h-53.8c-0.9 0-1.6-0.7-1.6-1.6 0-0.9 0.7-1.7 1.6-1.7z"/>
		<path fill-rule="evenodd" class="s3" d="m333.6 216.9h66.1c1.5 0 2.7 1.3 2.7 2.8 0 1.5-1.2 2.7-2.7 2.7h-66.1c-1.5 0-2.7-1.2-2.7-2.7 0-1.5 1.2-2.8 2.7-2.8z"/>
		<path fill-rule="evenodd" class="s4" d="m656.3 309.9h60c0.6 0 1.1 0.5 1.1 1.1 0 0.6-0.5 1.1-1.1 1.1h-60c-0.6 0-1-0.5-1-1.1 0-0.6 0.4-1.1 1-1.1z"/>
		<path fill-rule="evenodd" class="s5" d="m410.4 343.6h32.1c1.1 0 2 0.9 2 2 0 1.2-0.9 2.1-2 2.1h-32.1c-1.1 0-2-0.9-2-2.1 0-1.1 0.9-2 2-2z"/>
		<path fill-rule="evenodd" class="s6" d="m525.6 131.6h59.2c0.6 0 1.1 0.5 1.1 1.1 0 0.6-0.5 1.1-1.1 1.1h-59.2c-0.6 0-1.1-0.5-1.1-1.1 0-0.6 0.5-1.1 1.1-1.1z"/>
		<path fill-rule="evenodd" class="s7" d="m464.2 217.9h61.6c1.9 0 3.4 1.5 3.4 3.3 0 1.8-1.5 3.3-3.4 3.3h-61.6c-1.8 0-3.3-1.5-3.3-3.3 0-1.8 1.5-3.3 3.3-3.3z"/>
		<path fill-rule="evenodd" class="s8" d="m316.1 311.5h61c1 0 1.8 0.9 1.8 1.9 0 1-0.8 1.8-1.8 1.8h-61c-1 0-1.8-0.8-1.8-1.8 0-1 0.8-1.9 1.8-1.9z"/>
		<path fill-rule="evenodd" class="s9" d="m491 363.4h16.3c1.3 0 2.3 1 2.3 2.3 0 1.2-1 2.3-2.3 2.3h-16.3c-1.2 0-2.3-1.1-2.3-2.3 0-1.3 1.1-2.3 2.3-2.3z"/>
		<path fill-rule="evenodd" class="s10" d="m501.9 95.2h37.2c1.6 0 2.8 1.2 2.8 2.8 0 1.5-1.2 2.8-2.8 2.8h-37.2c-1.5 0-2.8-1.3-2.8-2.8 0-1.6 1.3-2.8 2.8-2.8z"/>
		<path fill-rule="evenodd" class="s11" d="m384.9 174.6h35.6c0.5 0 1 0.4 1 1 0 0.6-0.5 1-1 1h-35.6c-0.5 0-1-0.4-1-1 0-0.6 0.5-1 1-1z"/>
		<path fill-rule="evenodd" class="s12" d="m442 267.1h70.2c1.9 0 3.4 1.5 3.4 3.4 0 1.9-1.5 3.4-3.4 3.4h-70.2c-1.8 0-3.4-1.5-3.4-3.4 0-1.9 1.6-3.4 3.4-3.4z"/>
		<path fill-rule="evenodd" class="s13" d="m299.4 426.2h73.8c1.5 0 2.7 1.2 2.7 2.7 0 1.5-1.2 2.8-2.7 2.8h-73.8c-1.5 0-2.7-1.3-2.7-2.8 0-1.5 1.2-2.7 2.7-2.7z"/>
		<path fill-rule="evenodd" class="s14" d="m458.9 85.9h30.5c1.9 0 3.4 1.5 3.4 3.4 0 1.9-1.5 3.4-3.4 3.4h-30.5c-1.9 0-3.4-1.5-3.4-3.4 0-1.9 1.5-3.4 3.4-3.4z"/>
		<path fill-rule="evenodd" class="s15" d="m633 397.2h25.5c1.5 0 2.7 1.3 2.7 2.8 0 1.5-1.2 2.8-2.7 2.8h-25.5c-1.5 0-2.8-1.3-2.8-2.8 0-1.5 1.3-2.8 2.8-2.8z"/>
		<path fill-rule="evenodd" class="s16" d="m442.4 203.9h20c1.4 0 2.5 1.1 2.5 2.5 0 1.4-1.1 2.6-2.5 2.6h-20c-1.4 0-2.6-1.2-2.6-2.6 0-1.4 1.2-2.5 2.6-2.5z"/>
		<path fill-rule="evenodd" class="s17" d="m650.3 353h69c1.9 0 3.5 1.5 3.5 3.4 0 1.9-1.6 3.4-3.5 3.4h-69c-1.9 0-3.4-1.5-3.4-3.4 0-1.9 1.5-3.4 3.4-3.4z"/>
		<path fill-rule="evenodd" class="s18" d="m380 365.4h60.1c0.8 0 1.5 0.6 1.5 1.5 0 0.8-0.7 1.5-1.5 1.5h-60.1c-0.8 0-1.5-0.7-1.5-1.5 0-0.9 0.7-1.5 1.5-1.5z"/>
		<path fill-rule="evenodd" class="s19" d="m574.8 247.7h78.7c1.5 0 2.7 1.2 2.7 2.7 0 1.5-1.2 2.7-2.7 2.7h-78.7c-1.5 0-2.7-1.2-2.7-2.7 0-1.5 1.2-2.7 2.7-2.7z"/>
		<path fill-rule="evenodd" class="s20" d="m664.2 135.1h12.6c1.3 0 2.4 1 2.4 2.3 0 1.3-1.1 2.3-2.4 2.3h-12.6c-1.3 0-2.4-1-2.4-2.3 0-1.3 1.1-2.3 2.4-2.3z"/>
		<path fill-rule="evenodd" class="s21" d="m332.8 195.3h44.9c0.6 0 1.2 0.6 1.2 1.2 0 0.6-0.6 1.2-1.2 1.2h-44.9c-0.7 0-1.2-0.6-1.2-1.2 0-0.6 0.5-1.2 1.2-1.2z"/>
		<path fill-rule="evenodd" class="s22" d="m615.3 310.5h46.8c1.3 0 2.4 1 2.4 2.4 0 1.3-1.1 2.4-2.4 2.4h-46.8c-1.3 0-2.4-1.1-2.4-2.4 0-1.4 1.1-2.4 2.4-2.4z"/>
		<path fill-rule="evenodd" class="s23" d="m657.5 384.1h59c1 0 1.9 0.9 1.9 2 0 1.1-0.9 1.9-1.9 1.9h-59c-1 0-1.9-0.8-1.9-1.9 0-1.1 0.9-2 1.9-2z"/>
		<path fill-rule="evenodd" class="s24" d="m331.2 417.9h32.5c1.7 0 3.2 1.4 3.2 3.1 0 1.8-1.5 3.2-3.2 3.2h-32.5c-1.7 0-3.1-1.4-3.1-3.2 0-1.7 1.4-3.1 3.1-3.1z"/>
		<path fill-rule="evenodd" class="s25" d="m405.7 244.1h49.9c0.8 0 1.4 0.7 1.4 1.5 0 0.8-0.6 1.5-1.4 1.5h-49.9c-0.8 0-1.4-0.7-1.4-1.5 0-0.8 0.6-1.5 1.4-1.5z"/>
		<path fill-rule="evenodd" class="s26" d="m456.8 304h67.6c1.7 0 3 1.3 3 2.9 0 1.7-1.3 3-3 3h-67.6c-1.7 0-3-1.3-3-3 0-1.6 1.3-2.9 3-2.9z"/>
		<path fill-rule="evenodd" class="s27" d="m562.6 351.6h55.8c2 0 3.7 1.6 3.7 3.7 0 2-1.7 3.7-3.7 3.7h-55.8c-2.1 0-3.7-1.7-3.7-3.7 0-2.1 1.6-3.7 3.7-3.7z"/>
		<path fill-rule="evenodd" class="s28" d="m496.1 210.2h81.3c1.7 0 3.1 1.4 3.1 3.1 0 1.7-1.4 3.1-3.1 3.1h-81.3c-1.7 0-3.1-1.4-3.1-3.1 0-1.7 1.4-3.1 3.1-3.1z"/>
		<path fill-rule="evenodd" class="s29" d="m659.6 220.4h66.9c1.9 0 3.5 1.5 3.5 3.4 0 1.9-1.6 3.5-3.5 3.5h-66.9c-1.9 0-3.4-1.6-3.4-3.5 0-1.9 1.5-3.4 3.4-3.4z"/>
		<path fill-rule="evenodd" class="s30" d="m587.8 277h57.8c1.3 0 2.3 1 2.3 2.3 0 1.2-1 2.2-2.3 2.2h-57.8c-1.3 0-2.3-1-2.3-2.2 0-1.3 1-2.3 2.3-2.3z"/>
		<path fill-rule="evenodd" class="s31" d="m373.1 436.2h46.6c0.9 0 1.6 0.8 1.6 1.7 0 0.9-0.7 1.7-1.6 1.7h-46.6c-0.9 0-1.7-0.8-1.7-1.7 0-0.9 0.8-1.7 1.7-1.7z"/>
		<path fill-rule="evenodd" class="s32" d="m587.5 369.4h69.8c2 0 3.7 1.6 3.7 3.6 0 2.1-1.7 3.7-3.7 3.7h-69.8c-2 0-3.7-1.6-3.7-3.7 0-2 1.7-3.6 3.7-3.6z"/>
		<path fill-rule="evenodd" class="s33" d="m592 220.4h17.7c1.9 0 3.5 1.6 3.5 3.5 0 1.9-1.6 3.5-3.5 3.5h-17.7c-1.9 0-3.5-1.6-3.5-3.5 0-1.9 1.6-3.5 3.5-3.5z"/>
		<path fill-rule="evenodd" class="s34" d="m367.5 233.3h61.4c0.9 0 1.7 0.8 1.7 1.7 0 1-0.8 1.7-1.7 1.7h-61.4c-0.9 0-1.7-0.7-1.7-1.7 0-0.9 0.8-1.7 1.7-1.7z"/>
		<path fill-rule="evenodd" class="s35" d="m614.1 279.9h29.3c1.9 0 3.4 1.5 3.4 3.4 0 1.9-1.5 3.4-3.4 3.4h-29.3c-1.9 0-3.4-1.5-3.4-3.4 0-1.9 1.5-3.4 3.4-3.4z"/>
		<g>
			<path fill-rule="evenodd" class="s36" d="m253 18.8h48.8c2.8 0 5 2.2 5 5 0 2.8-2.2 5.1-5 5.1h-48.8c-2.7 0-5-2.3-5-5.1 0-2.8 2.3-5 5-5z"/>
			<path fill-rule="evenodd" class="s37" d="m219.3 18.8h83.2c2 0 3.7 1.7 3.7 3.7 0 2.1-1.7 3.7-3.7 3.7h-83.2c-2 0-3.7-1.6-3.7-3.7 0-2 1.7-3.7 3.7-3.7z"/>
			<path fill-rule="evenodd" class="s38" d="m275.9 24.1h4c2.2 0 4 1.8 4 4 0 2.2-1.8 4-4 4h-4c-2.2 0-4-1.8-4-4 0-2.2 1.8-4 4-4z"/>
			<path fill-rule="evenodd" class="s39" d="m262.1 33.9h34.8c2.5 0 4.5 2.1 4.5 4.6 0 2.5-2 4.5-4.5 4.5h-34.8c-2.5 0-4.5-2-4.5-4.5 0-2.5 2-4.6 4.5-4.6z"/>
			<path fill-rule="evenodd" class="s40" d="m277.8 33.8h2.8c2.6 0 4.6 2 4.6 4.5 0 2.6-2 4.6-4.6 4.6h-2.8c-2.5 0-4.6-2-4.6-4.6 0-2.5 2.1-4.5 4.6-4.5z"/>
			<path fill-rule="evenodd" class="s41" d="m262 34.7h5c1.9 0 3.5 1.6 3.5 3.5v0.1c0 1.9-1.6 3.5-3.5 3.5h-5c-1.9 0-3.5-1.6-3.5-3.5v-0.1c0-1.9 1.6-3.5 3.5-3.5z"/>
			<path fill-rule="evenodd" class="s42" d="m237.7 30.3h51.9c2.1 0 3.9 1.8 3.9 3.9v0.1c0 2.1-1.8 3.9-3.9 3.9h-51.9c-2.1 0-3.9-1.8-3.9-3.9v-0.1c0-2.1 1.8-3.9 3.9-3.9z"/>
			<path fill-rule="evenodd" class="s43" d="m249.4 42.6h47.8c2.1 0 3.7 1.7 3.7 3.8 0 2-1.6 3.7-3.7 3.7h-47.8c-2.1 0-3.8-1.7-3.8-3.7 0-2.1 1.7-3.8 3.8-3.8z"/>
			<path fill-rule="evenodd" class="s44" d="m263.5 51.7h15.2c2.1 0 3.9 1.8 3.9 3.9 0 2.2-1.8 3.9-3.9 3.9h-15.2c-2.1 0-3.9-1.7-3.9-3.9 0-2.1 1.8-3.9 3.9-3.9z"/>
			<path fill-rule="evenodd" class="s45" d="m278.2 43.8h1.6c2.8 0 5.2 2.3 5.2 5.2 0 2.9-2.4 5.2-5.2 5.2h-1.6c-2.9 0-5.2-2.3-5.2-5.2 0-2.9 2.3-5.2 5.2-5.2z"/>
			<path fill-rule="evenodd" class="s46" d="m254.4 52.9h2.8c2.6 0 4.6 2.1 4.6 4.6 0 2.6-2 4.6-4.6 4.6h-2.8c-2.5 0-4.6-2-4.6-4.6 0-2.5 2.1-4.6 4.6-4.6z"/>
			<path fill-rule="evenodd" class="s47" d="m229 55.1h50.6c3 0 5.5 2.5 5.5 5.5 0 3-2.5 5.5-5.5 5.5h-50.6c-3 0-5.5-2.5-5.5-5.5 0-3 2.5-5.5 5.5-5.5z"/>
			<path fill-rule="evenodd" class="s48" d="m241.2 49.8h41.2c2 0 3.7 1.7 3.7 3.7 0 2-1.7 3.6-3.7 3.6h-41.2c-2 0-3.6-1.6-3.6-3.6 0-2 1.6-3.7 3.6-3.7z"/>
			<path fill-rule="evenodd" class="s49" d="m201 69.1h141.8c2 0 3.5 1.6 3.5 3.6 0 1.9-1.5 3.5-3.5 3.5h-141.8c-2 0-3.6-1.6-3.6-3.5 0-2 1.6-3.6 3.6-3.6z"/>
			<path fill-rule="evenodd" class="s50" d="m234.5 67h50.3c3 0 5.5 2.4 5.5 5.4 0 3-2.5 5.5-5.5 5.5h-50.3c-3 0-5.4-2.5-5.4-5.5 0-3 2.4-5.4 5.4-5.4z"/>
			<path fill-rule="evenodd" class="s51" d="m234.2 62.8h78.6c2.9 0 5.3 2.4 5.3 5.3 0 2.9-2.4 5.3-5.3 5.3h-78.6c-2.9 0-5.3-2.4-5.3-5.3 0-2.9 2.4-5.3 5.3-5.3z"/>
			<path fill-rule="evenodd" class="s52" d="m192.2 73h156.4c2.6 0 4.7 2.1 4.7 4.6 0 2.6-2.1 4.7-4.7 4.7h-156.4c-2.6 0-4.7-2.1-4.7-4.7 0-2.5 2.1-4.6 4.7-4.6z"/>
			<path fill-rule="evenodd" class="s53" d="m136.5 70.6h270.3c2.4 0 4.2 1.8 4.2 4.2 0 2.3-1.8 4.2-4.2 4.2h-270.3c-2.3 0-4.2-1.9-4.2-4.2 0-2.4 1.9-4.2 4.2-4.2z"/>
			<path fill-rule="evenodd" class="s54" d="m238.1 84.2h71.6c2.2 0 3.9 1.8 3.9 3.9 0 2.1-1.7 3.9-3.9 3.9h-71.6c-2.1 0-3.8-1.8-3.8-3.9 0-2.1 1.7-3.9 3.8-3.9z"/>
			<path fill-rule="evenodd" class="s55" d="m183.8 81.5h156.6c2.3 0 4.1 1.8 4.1 4 0 2.3-1.8 4.1-4.1 4.1h-156.6c-2.2 0-4-1.8-4-4.1 0-2.2 1.8-4 4-4z"/>
			<path fill-rule="evenodd" class="s56" d="m212.5 88.3h105.7c2.6 0 4.7 2.1 4.7 4.7 0 2.6-2.1 4.7-4.7 4.7h-105.7c-2.5 0-4.6-2.1-4.6-4.7 0-2.6 2.1-4.7 4.6-4.7z"/>
			<path fill-rule="evenodd" class="s57" d="m169.9 81.9h172.3c2.3 0 4.1 1.9 4.1 4.2 0 2.2-1.8 4.1-4.1 4.1h-172.3c-2.3 0-4.1-1.9-4.1-4.1 0-2.3 1.8-4.2 4.1-4.2z"/>
			<path fill-rule="evenodd" class="s58" d="m249.8 93.2h50c2.3 0 4.2 1.8 4.2 4.1 0 2.3-1.9 4.1-4.2 4.1h-50c-2.3 0-4.1-1.8-4.1-4.1 0-2.3 1.8-4.1 4.1-4.1z"/>
			<path fill-rule="evenodd" class="s59" d="m200.1 102.5h162.9c3 0 5.3 2.4 5.3 5.4 0 2.9-2.3 5.3-5.3 5.3h-162.9c-2.9 0-5.3-2.4-5.3-5.3 0-3 2.4-5.4 5.3-5.4z"/>
			<path fill-rule="evenodd" class="s56" d="m237.3 89.3h72.4c3.1 0 5.7 2.6 5.7 5.7 0 3.2-2.6 5.7-5.7 5.7h-72.4c-3.1 0-5.7-2.5-5.7-5.7 0-3.1 2.6-5.7 5.7-5.7z"/>
			<path fill-rule="evenodd" class="s60" d="m209.4 98.7h106.8c2.3 0 4.2 1.9 4.2 4.2 0 2.2-1.9 4.1-4.2 4.1h-106.8c-2.2 0-4.1-1.9-4.1-4.1 0-2.3 1.9-4.2 4.1-4.2z"/>
			<path fill-rule="evenodd" class="s61" d="m225.7 102.4h117.5c2.7 0 4.9 2.2 4.9 4.9 0 2.7-2.2 4.9-4.9 4.9h-117.5c-2.7 0-4.9-2.2-4.9-4.9 0-2.7 2.2-4.9 4.9-4.9z"/>
			<path fill-rule="evenodd" class="s62" d="m193.2 117.6h187c3.1 0 5.5 2.5 5.5 5.5 0 3.1-2.4 5.5-5.5 5.5h-187c-3 0-5.5-2.4-5.5-5.5 0-3 2.5-5.5 5.5-5.5z"/>
			<path fill-rule="evenodd" class="s63" d="m146.2 110.5h237.3c3 0 5.4 2.4 5.4 5.3 0 3-2.4 5.4-5.4 5.4h-237.3c-2.9 0-5.4-2.4-5.4-5.4 0-2.9 2.5-5.3 5.4-5.3z"/>
			<path fill-rule="evenodd" class="s64" d="m185.8 112.5h178.1c2.9 0 5.2 2.4 5.2 5.3 0 2.9-2.3 5.3-5.2 5.3h-178.1c-2.9 0-5.3-2.4-5.3-5.3 0-2.9 2.4-5.3 5.3-5.3z"/>
			<path fill-rule="evenodd" class="s65" d="m164.3 113.2h186c2.7 0 5 2.2 5 5 0 2.8-2.3 5-5 5h-186c-2.8 0-5.1-2.2-5.1-5 0-2.8 2.3-5 5.1-5z"/>
			<path fill-rule="evenodd" class="s66" d="m99 128.4h346c2.9 0 5.3 2.3 5.3 5.2 0 2.9-2.4 5.2-5.3 5.2h-346c-2.9 0-5.2-2.3-5.2-5.2 0-2.9 2.3-5.2 5.2-5.2z"/>
			<path fill-rule="evenodd" class="s67" d="m180.1 116h178.9c2.8 0 5.1 2.3 5.1 5.1 0 2.8-2.3 5.1-5.1 5.1h-178.9c-2.8 0-5-2.3-5-5.1 0-2.8 2.2-5.1 5-5.1z"/>
			<path fill-rule="evenodd" class="s68" d="m90.4 137h341.8c2.9 0 5.3 2.3 5.3 5.3 0 2.9-2.4 5.2-5.3 5.2h-341.8c-2.9 0-5.3-2.3-5.3-5.2 0-3 2.4-5.3 5.3-5.3z"/>
			<path fill-rule="evenodd" class="s69" d="m173.2 126.9h228.3c2.3 0 4.1 1.8 4.1 4.1 0 2.2-1.8 4.1-4.1 4.1h-228.3c-2.3 0-4.1-1.9-4.1-4.1 0-2.3 1.8-4.1 4.1-4.1z"/>
			<path fill-rule="evenodd" class="s70" d="m168 129.1h228.7c2.6 0 4.7 2.1 4.7 4.7 0 2.6-2.1 4.7-4.7 4.7h-228.7c-2.6 0-4.7-2.1-4.7-4.7 0-2.6 2.1-4.7 4.7-4.7z"/>
			<path fill-rule="evenodd" class="s71" d="m144.3 145.1h199.5c3.1 0 5.6 2.5 5.6 5.6 0 3.1-2.5 5.6-5.6 5.6h-199.5c-3.1 0-5.6-2.5-5.6-5.6 0-3.1 2.5-5.6 5.6-5.6z"/>
			<path fill-rule="evenodd" class="s72" d="m156.5 144.7h183c2.4 0 4.3 1.9 4.3 4.2 0 2.3-1.9 4.2-4.3 4.2h-183c-2.3 0-4.2-1.9-4.2-4.2 0-2.3 1.9-4.2 4.2-4.2z"/>
			<path fill-rule="evenodd" class="s73" d="m108.4 139.2h310.8c3.2 0 5.8 2.6 5.8 5.8 0 3.2-2.6 5.9-5.8 5.9h-310.8c-3.2 0-5.8-2.7-5.8-5.9 0-3.2 2.6-5.8 5.8-5.8z"/>
			<path fill-rule="evenodd" class="s74" d="m145.1 138.4h201c3.1 0 5.6 2.5 5.6 5.6 0 3-2.5 5.5-5.6 5.5h-201c-3.1 0-5.6-2.5-5.6-5.5 0-3.1 2.5-5.6 5.6-5.6z"/>
			<path fill-rule="evenodd" class="s75" d="m186.2 145.6h181.5c3.2 0 5.9 2.6 5.9 5.8 0 3.3-2.7 5.9-5.9 5.9h-181.5c-3.2 0-5.8-2.6-5.8-5.9 0-3.2 2.6-5.8 5.8-5.8z"/>
			<path fill-rule="evenodd" class="s76" d="m82.1 162.2h330.4c2.6 0 4.7 2.1 4.7 4.7 0 2.6-2.1 4.7-4.7 4.7h-330.4c-2.6 0-4.7-2.1-4.7-4.7 0-2.6 2.1-4.7 4.7-4.7z"/>
			<path fill-rule="evenodd" class="s77" d="m84.2 164.8h386.5c2.7 0 4.9 2.2 4.9 4.9 0 2.7-2.2 4.9-4.9 4.9h-386.5c-2.7 0-4.9-2.2-4.9-4.9 0-2.7 2.2-4.9 4.9-4.9z"/>
			<path fill-rule="evenodd" class="s78" d="m161.8 153h236.1c3.2 0 5.7 2.5 5.7 5.7 0 3.2-2.5 5.8-5.7 5.8h-236.1c-3.1 0-5.7-2.6-5.7-5.8 0-3.2 2.6-5.7 5.7-5.7z"/>
			<path fill-rule="evenodd" class="s79" d="m140.8 153.2h269.5c3.2 0 5.8 2.5 5.8 5.7 0 3.2-2.6 5.8-5.8 5.8h-269.6c-3.1 0-5.7-2.6-5.7-5.8 0-3.2 2.6-5.7 5.8-5.7z"/>
			<path fill-rule="evenodd" class="s80" d="m9.9 174.8h489.9c3.2 0 5.8 2.6 5.8 5.8 0 3.2-2.6 5.8-5.8 5.8h-489.9c-3.2 0-5.8-2.6-5.8-5.8 0-3.2 2.6-5.8 5.8-5.8z"/>
			<path fill-rule="evenodd" class="s81" d="m62.5 166.5h430.3c3.4 0 6.1 2.7 6.1 6.1 0 3.4-2.7 6.1-6.1 6.1h-430.3c-3.4 0-6.1-2.7-6.1-6.1 0-3.4 2.7-6.1 6.1-6.1z"/>
			<path fill-rule="evenodd" class="s82" d="m102 178.1h333.7c3.3 0 6.1 2.7 6.1 6v0.1c0 3.3-2.8 6-6.1 6h-333.7c-3.4 0-6.1-2.7-6.1-6v-0.1c0-3.3 2.7-6 6.1-6z"/>
			<path fill-rule="evenodd" class="s83" d="m135 189.6h291.9c2.7 0 4.9 2.1 4.9 4.8 0 2.7-2.2 4.9-4.9 4.9h-291.9c-2.7 0-4.8-2.2-4.8-4.9 0-2.7 2.1-4.8 4.8-4.8z"/>
			<path fill-rule="evenodd" class="s84" d="m61.6 181.6h394.1c3.1 0 5.6 2.5 5.6 5.7 0 3.1-2.5 5.6-5.6 5.6h-394.1c-3.2 0-5.7-2.5-5.7-5.6 0-3.2 2.5-5.7 5.7-5.7z"/>
			<path fill-rule="evenodd" class="s85" d="m142 195.4h250.1c2.4 0 4.4 1.9 4.4 4.4 0 2.4-2 4.4-4.4 4.4h-250.1c-2.4 0-4.4-2-4.4-4.4 0-2.5 2-4.4 4.4-4.4z"/>
			<path fill-rule="evenodd" class="s86" d="m109.4 183.7h339c2.7 0 4.8 2.2 4.8 4.9 0 2.7-2.1 4.9-4.8 4.9h-339c-2.7 0-4.8-2.2-4.8-4.9 0-2.7 2.1-4.9 4.8-4.9z"/>
			<path fill-rule="evenodd" class="s87" d="m73.7 189.1h410.5c3.4 0 6.1 2.7 6.1 6.1 0 3.3-2.7 6.1-6.1 6.1h-410.5c-3.4 0-6.1-2.8-6.1-6.1 0-3.4 2.7-6.1 6.1-6.1z"/>
			<path fill-rule="evenodd" class="s88" d="m124.6 189.6h287.9c3.1 0 5.5 2.5 5.5 5.5 0 3-2.4 5.5-5.5 5.5h-287.9c-3 0-5.5-2.5-5.5-5.5 0-3 2.5-5.5 5.5-5.5z"/>
			<path fill-rule="evenodd" class="s89" d="m156.4 197.2h258.6c2.6 0 4.7 2.1 4.7 4.7 0 2.6-2.1 4.7-4.7 4.7h-258.6c-2.6 0-4.7-2.1-4.7-4.7 0-2.6 2.1-4.7 4.7-4.7z"/>
			<path fill-rule="evenodd" class="s90" d="m150.9 201.9h271.8c3.2 0 5.8 2.6 5.8 5.8 0 3.3-2.6 5.9-5.8 5.9h-271.8c-3.2 0-5.9-2.6-5.9-5.9 0-3.2 2.7-5.8 5.9-5.8z"/>
			<path fill-rule="evenodd" class="s91" d="m152.3 197.6h272c2.5 0 4.5 2 4.5 4.5 0 2.5-2 4.6-4.5 4.6h-272c-2.5 0-4.6-2.1-4.6-4.6 0-2.5 2.1-4.5 4.6-4.5z"/>
			<path fill-rule="evenodd" class="s92" d="m21.5 211.6h476.4c3.1 0 5.7 2.6 5.7 5.7v0.1c0 3.1-2.6 5.7-5.7 5.7h-476.4c-3.1 0-5.7-2.6-5.7-5.7v-0.1c0-3.1 2.6-5.7 5.7-5.7z"/>
			<path fill-rule="evenodd" class="s93" d="m127.6 218.3h322.7c3.1 0 5.5 2.4 5.5 5.4 0 3-2.4 5.5-5.5 5.5h-322.7c-3 0-5.4-2.5-5.4-5.5 0-3 2.4-5.4 5.4-5.4z"/>
			<path fill-rule="evenodd" class="s94" d="m138.7 208.2h293.5c3.2 0 5.8 2.6 5.8 5.7 0 3.2-2.6 5.8-5.8 5.8h-293.5c-3.1 0-5.7-2.6-5.7-5.8 0-3.1 2.6-5.7 5.7-5.7z"/>
			<path fill-rule="evenodd" class="s95" d="m95.9 220.9h343.7c3.4 0 6.1 2.7 6.1 6.1 0 3.4-2.7 6.1-6.1 6.1h-343.7c-3.4 0-6.2-2.7-6.2-6.1 0-3.4 2.8-6.1 6.2-6.1z"/>
			<path fill-rule="evenodd" class="s96" d="m138 232.5h228.2c2.7 0 4.9 2.2 4.9 5 0 2.7-2.2 4.9-4.9 4.9h-228.2c-2.8 0-5-2.2-5-4.9 0-2.8 2.2-5 5-5z"/>
			<path fill-rule="evenodd" class="s97" d="m166 232.3h173.2c2.8 0 5.2 2.3 5.2 5.1 0 2.9-2.4 5.2-5.2 5.2h-173.2c-2.8 0-5.1-2.3-5.1-5.2 0-2.8 2.3-5.1 5.1-5.1z"/>
			<path fill-rule="evenodd" class="s98" d="m118.6 218.3h319c2.5 0 4.6 2.1 4.6 4.7 0 2.6-2.1 4.6-4.6 4.6h-319c-2.6 0-4.6-2-4.6-4.6 0-2.6 2-4.7 4.6-4.7z"/>
			<path fill-rule="evenodd" class="s99" d="m153.2 232.9h227.2c3.3 0 6 2.7 6 5.9 0 3.3-2.7 6-6 6h-227.2c-3.3 0-6-2.7-6-6 0-3.2 2.7-5.9 6-5.9z"/>
			<path fill-rule="evenodd" class="s100" d="m168.8 242.5h208.3c3.4 0 6.2 2.8 6.2 6.3 0 3.5-2.8 6.3-6.2 6.3h-208.3c-3.5 0-6.3-2.8-6.3-6.3 0-3.5 2.8-6.3 6.3-6.3z"/>
			<path fill-rule="evenodd" class="s101" d="m128.2 236.1h241.2c3 0 5.4 2.5 5.4 5.5 0 3-2.4 5.4-5.4 5.4h-241.2c-3 0-5.5-2.4-5.5-5.4 0-3 2.5-5.5 5.5-5.5z"/>
			<path fill-rule="evenodd" class="s102" d="m137.1 237.1h217.6c3 0 5.5 2.5 5.5 5.6 0 3-2.5 5.5-5.5 5.5h-217.6c-3 0-5.5-2.5-5.5-5.5 0-3.1 2.5-5.6 5.5-5.6z"/>
			<path fill-rule="evenodd" class="s103" d="m143.2 248.7h201.2c3.1 0 5.6 2.5 5.6 5.5 0 3.1-2.5 5.6-5.6 5.6h-201.2c-3 0-5.5-2.5-5.5-5.6 0-3 2.5-5.5 5.5-5.5z"/>
			<path fill-rule="evenodd" class="s104" d="m79.7 245h350.9c3.4 0 6.2 2.8 6.2 6.2 0 3.4-2.8 6.1-6.2 6.1h-350.9c-3.4 0-6.1-2.7-6.1-6.1 0-3.4 2.7-6.2 6.1-6.2z"/>
			<path fill-rule="evenodd" class="s105" d="m128.8 244.7h249.8c3.3 0 6 2.6 6 5.9 0 3.3-2.7 6-6 6h-249.8c-3.3 0-5.9-2.7-5.9-6 0-3.3 2.6-5.9 5.9-5.9z"/>
			<path fill-rule="evenodd" class="s106" d="m93.3 259.7h312.2c2.6 0 4.7 2.1 4.7 4.7 0 2.6-2.1 4.7-4.7 4.7h-312.2c-2.6 0-4.7-2.1-4.7-4.7 0-2.6 2.1-4.7 4.7-4.7z"/>
			<path fill-rule="evenodd" class="s107" d="m45.3 247.6h399.1c3.2 0 5.9 2.6 5.9 5.9 0 3.3-2.7 5.9-5.9 5.9h-399.2c-3.2 0-5.9-2.6-5.9-5.9 0-3.3 2.7-5.9 5.9-5.9z"/>
			<path fill-rule="evenodd" class="s108" d="m128.4 250.5h227.5c2.6 0 4.7 2.1 4.7 4.8 0 2.6-2.1 4.8-4.7 4.8h-227.5c-2.7 0-4.8-2.2-4.8-4.8 0-2.7 2.1-4.8 4.8-4.8z"/>
			<path fill-rule="evenodd" class="s109" d="m108.8 270.6h332c2.8 0 5 2.2 5 5 0 2.7-2.2 4.9-5 4.9h-332c-2.7 0-4.9-2.2-4.9-4.9 0-2.8 2.2-5 4.9-5z"/>
			<path fill-rule="evenodd" class="s110" d="m130.9 279.1h329.5c3.5 0 6.3 2.9 6.3 6.4 0 3.4-2.8 6.3-6.3 6.3h-329.5c-3.5 0-6.3-2.9-6.3-6.3 0-3.5 2.8-6.4 6.3-6.4z"/>
			<path fill-rule="evenodd" class="s111" d="m101.7 269.9h365c2.7 0 4.9 2.2 4.9 4.9 0 2.8-2.2 5-4.9 5h-365c-2.7 0-4.9-2.2-4.9-5 0-2.7 2.2-4.9 4.9-4.9z"/>
			<path fill-rule="evenodd" class="s112" d="m93 279.4h350.8c3.4 0 6.2 2.8 6.2 6.2 0 3.4-2.8 6.1-6.2 6.1h-350.8c-3.4 0-6.2-2.7-6.2-6.1 0-3.4 2.8-6.2 6.2-6.2z"/>
			<path fill-rule="evenodd" class="s113" d="m87.2 272h386.3c2.9 0 5.2 2.4 5.2 5.2 0 2.9-2.3 5.2-5.2 5.2h-386.3c-2.9 0-5.3-2.3-5.3-5.2 0-2.8 2.4-5.2 5.3-5.2z"/>
			<path fill-rule="evenodd" class="s114" d="m14.7 291.7h513.1c3.2 0 5.8 2.7 5.8 5.9 0 3.3-2.6 5.9-5.8 5.9h-513.1c-3.3 0-5.9-2.6-5.9-5.9 0-3.2 2.6-5.9 5.9-5.9z"/>
			<path fill-rule="evenodd" class="s115" d="m6 271.9h562.6c3.4 0 6.1 2.7 6.1 6 0 3.3-2.7 6-6.1 6h-562.6c-3.3 0-6-2.7-6-6 0-3.3 2.7-6 6-6z"/>
			<path fill-rule="evenodd" class="s116" d="m128.5 274.8h282.2c3.3 0 6.1 2.7 6.1 6.1 0 3.4-2.8 6.1-6.1 6.1h-282.2c-3.4 0-6.2-2.7-6.2-6.1 0-3.4 2.8-6.1 6.2-6.1z"/>
			<path fill-rule="evenodd" class="s117" d="m57.9 296.4h410.4c3.2 0 5.8 2.5 5.8 5.7 0 3.2-2.6 5.8-5.8 5.8h-410.4c-3.2 0-5.7-2.6-5.7-5.8 0-3.2 2.5-5.7 5.7-5.7z"/>
			<path fill-rule="evenodd" class="s118" d="m82.1 296.4h364.4c3.3 0 6 2.7 6 6 0 3.3-2.7 6-6 6h-364.4c-3.3 0-5.9-2.7-5.9-6 0-3.3 2.6-6 5.9-6z"/>
			<path fill-rule="evenodd" class="s119" d="m14.7 291.9h486.9c2.7 0 5 2.3 5 5 0 2.8-2.3 5-5 5h-486.9c-2.7 0-5-2.2-5-5 0-2.7 2.3-5 5-5z"/>
			<path fill-rule="evenodd" class="s120" d="m70.6 308.5h375.4c2.6 0 4.7 2.2 4.7 4.8 0 2.6-2.1 4.7-4.7 4.7h-375.4c-2.6 0-4.7-2.1-4.7-4.7 0-2.6 2.1-4.8 4.7-4.8z"/>
			<path fill-rule="evenodd" class="s121" d="m109.7 298.1h368.3c3.1 0 5.6 2.5 5.6 5.6 0 3.1-2.5 5.6-5.6 5.6h-368.3c-3.1 0-5.6-2.5-5.6-5.6 0-3.1 2.5-5.6 5.6-5.6z"/>
			<path fill-rule="evenodd" class="s122" d="m103.5 298.7h370.7c3.2 0 5.7 2.5 5.7 5.7 0 3.1-2.5 5.6-5.7 5.6h-370.7c-3.1 0-5.6-2.5-5.6-5.6 0-3.2 2.5-5.7 5.6-5.7z"/>
			<path fill-rule="evenodd" class="s123" d="m97.2 310.7h369.8c3 0 5.3 2.4 5.3 5.3 0 2.9-2.3 5.3-5.3 5.3h-369.8c-2.9 0-5.3-2.4-5.3-5.3 0-2.9 2.4-5.3 5.3-5.3z"/>
			<path fill-rule="evenodd" class="s124" d="m30.2 319.2h450c3.5 0 6.4 2.9 6.4 6.5 0 3.5-2.9 6.4-6.4 6.4h-450c-3.5 0-6.4-2.9-6.4-6.4 0-3.6 2.9-6.5 6.4-6.5z"/>
			<path fill-rule="evenodd" class="s125" d="m105 326.2h309.5c2.9 0 5.3 2.4 5.3 5.3 0 3-2.4 5.3-5.3 5.3h-309.5c-3 0-5.3-2.3-5.3-5.3 0-2.9 2.3-5.3 5.3-5.3z"/>
			<path fill-rule="evenodd" class="s126" d="m160.3 335.5h211.2c3.2 0 5.9 2.7 5.9 5.9 0 3.3-2.7 5.9-5.9 5.9h-211.2c-3.2 0-5.9-2.6-5.9-5.9 0-3.2 2.7-5.9 5.9-5.9z"/>
			<path fill-rule="evenodd" class="s127" d="m44.6 318.1h435.4c3.1 0 5.6 2.5 5.6 5.5 0 3.1-2.5 5.6-5.6 5.6h-435.4c-3.1 0-5.6-2.5-5.6-5.6 0-3 2.5-5.5 5.6-5.5z"/>
			<path fill-rule="evenodd" class="s128" d="m62.5 322.1h397.1c3.2 0 5.7 2.6 5.7 5.8 0 3.1-2.5 5.7-5.7 5.7h-397.1c-3.2 0-5.7-2.6-5.7-5.7 0-3.2 2.5-5.8 5.7-5.8z"/>
			<path fill-rule="evenodd" class="s129" d="m165.5 340h195.8c3.1 0 5.7 2.6 5.7 5.7 0 3.1-2.6 5.6-5.7 5.6h-195.8c-3.1 0-5.6-2.5-5.6-5.6 0-3.1 2.5-5.7 5.6-5.7z"/>
			<path fill-rule="evenodd" class="s130" d="m135.7 344.3h274.9c3 0 5.5 2.5 5.5 5.5 0 3-2.5 5.5-5.5 5.5h-274.9c-3 0-5.4-2.5-5.4-5.5 0-3 2.4-5.5 5.4-5.5z"/>
			<path fill-rule="evenodd" class="s131" d="m117.2 329.6h287.8c2.4 0 4.5 2 4.5 4.5 0 2.4-2.1 4.5-4.5 4.5h-287.8c-2.5 0-4.5-2.1-4.5-4.5 0-2.5 2-4.5 4.5-4.5z"/>
			<path fill-rule="evenodd" class="s132" d="m150.7 340.9h187.1c3.4 0 6.2 2.8 6.2 6.2 0 3.4-2.8 6.2-6.2 6.2h-187.1c-3.4 0-6.2-2.8-6.2-6.2 0-3.4 2.8-6.2 6.2-6.2z"/>
			<path fill-rule="evenodd" class="s133" d="m84.1 347.9h320c3.2 0 5.8 2.6 5.8 5.8 0 3.2-2.6 5.8-5.8 5.8h-320c-3.2 0-5.7-2.6-5.7-5.8 0-3.2 2.5-5.8 5.7-5.8z"/>
			<path fill-rule="evenodd" class="s134" d="m150.8 353.1h236.5c3.1 0 5.6 2.5 5.6 5.5 0 3.1-2.5 5.6-5.6 5.6h-236.5c-3.1 0-5.6-2.5-5.6-5.6 0-3 2.5-5.5 5.6-5.5z"/>
			<path fill-rule="evenodd" class="s135" d="m149.8 342.5h210.2c3.1 0 5.6 2.5 5.6 5.6 0 3.1-2.5 5.7-5.6 5.7h-210.2c-3.1 0-5.6-2.6-5.6-5.7 0-3.1 2.5-5.6 5.6-5.6z"/>
			<path fill-rule="evenodd" class="s136" d="m142.5 367h253.2c2.7 0 4.9 2.2 4.9 4.9 0 2.7-2.2 4.8-4.9 4.8h-253.2c-2.7 0-4.9-2.1-4.9-4.8 0-2.7 2.2-4.9 4.9-4.9z"/>
			<path fill-rule="evenodd" class="s137" d="m162.8 370.9h221.9c2.8 0 5 2.3 5 5 0 2.8-2.2 5.1-5 5.1h-221.9c-2.7 0-5-2.3-5-5.1 0-2.7 2.3-5 5-5z"/>
			<path fill-rule="evenodd" class="s138" d="m145.9 359.4h265.4c2.6 0 4.6 2.1 4.6 4.6 0 2.5-2 4.6-4.6 4.6h-265.4c-2.5 0-4.5-2.1-4.5-4.6 0-2.5 2-4.6 4.5-4.6z"/>
			<path fill-rule="evenodd" class="s139" d="m68.9 376.4h387c2.5 0 4.5 2 4.5 4.5 0 2.5-2 4.5-4.5 4.5h-387c-2.5 0-4.5-2-4.5-4.5 0-2.5 2-4.5 4.5-4.5z"/>
			<path fill-rule="evenodd" class="s140" d="m56.1 370.7h428.7c2.4 0 4.4 2 4.4 4.4 0 2.4-2 4.4-4.4 4.4h-428.7c-2.4 0-4.4-2-4.4-4.4 0-2.4 2-4.4 4.4-4.4z"/>
			<path fill-rule="evenodd" class="s141" d="m171.8 372.8h239.2c2.5 0 4.6 2.1 4.6 4.6 0 2.5-2.1 4.6-4.6 4.6h-239.2c-2.6 0-4.6-2.1-4.6-4.6 0-2.5 2-4.6 4.6-4.6z"/>
			<path fill-rule="evenodd" class="s142" d="m178 373.5h218.7c3.2 0 5.8 2.6 5.8 5.8 0 3.2-2.6 5.8-5.8 5.8h-218.7c-3.2 0-5.8-2.6-5.8-5.8 0-3.2 2.6-5.8 5.8-5.8z"/>
			<path fill-rule="evenodd" class="s143" d="m184.5 386.3h158.7c2.6 0 4.7 2.1 4.7 4.7 0 2.6-2.1 4.7-4.7 4.7h-158.7c-2.6 0-4.7-2.1-4.7-4.7 0-2.6 2.1-4.7 4.7-4.7z"/>
			<path fill-rule="evenodd" class="s144" d="m153.8 394.4h235.2c2.6 0 4.7 2.2 4.7 4.8 0 2.6-2.1 4.7-4.7 4.7h-235.2c-2.7 0-4.8-2.1-4.8-4.7 0-2.6 2.1-4.8 4.8-4.8z"/>
			<path fill-rule="evenodd" class="s145" d="m109.1 387.3h305.6c3.1 0 5.6 2.5 5.6 5.6 0 3-2.5 5.5-5.6 5.5h-305.6c-3.1 0-5.6-2.5-5.6-5.5 0-3.1 2.5-5.6 5.6-5.6z"/>
			<path fill-rule="evenodd" class="s146" d="m154.7 395.2h221.2c2.9 0 5.3 2.4 5.3 5.3 0 3-2.4 5.4-5.3 5.4h-221.2c-2.9 0-5.3-2.4-5.3-5.4 0-2.9 2.4-5.3 5.3-5.3z"/>
			<path fill-rule="evenodd" class="s147" d="m134 403.8h291.9c3.2 0 5.8 2.6 5.8 5.8 0 3.1-2.6 5.7-5.8 5.7h-291.9c-3.2 0-5.8-2.6-5.8-5.7 0-3.2 2.6-5.8 5.8-5.8z"/>
			<path fill-rule="evenodd" class="s148" d="m149.3 396.9h232.6c2.9 0 5.3 2.4 5.3 5.3 0 3-2.4 5.3-5.3 5.3h-232.6c-2.9 0-5.3-2.3-5.3-5.3 0-2.9 2.4-5.3 5.3-5.3z"/>
			<path fill-rule="evenodd" class="s149" d="m145.4 399h271.3c3.1 0 5.7 2.6 5.7 5.7 0 3.1-2.6 5.7-5.7 5.7h-271.3c-3.2 0-5.7-2.6-5.7-5.7 0-3.1 2.5-5.7 5.7-5.7z"/>
			<path fill-rule="evenodd" class="s150" d="m144.7 400.5h264.6c3.1 0 5.7 2.5 5.7 5.6 0 3.2-2.6 5.7-5.7 5.7h-264.6c-3.2 0-5.7-2.5-5.7-5.7 0-3.1 2.5-5.6 5.7-5.6z"/>
			<path fill-rule="evenodd" class="s151" d="m163.7 397.1h205.6c2.2 0 4.1 1.8 4.1 4.1 0 2.3-1.9 4.1-4.1 4.1h-205.6c-2.2 0-4.1-1.8-4.1-4.1 0-2.3 1.9-4.1 4.1-4.1z"/>
			<path fill-rule="evenodd" class="s152" d="m155.5 417.8h241c2.3 0 4 1.8 4 4 0 2.2-1.7 4-4 4h-241c-2.2 0-4-1.8-4-4 0-2.2 1.8-4 4-4z"/>
			<path fill-rule="evenodd" class="s153" d="m120.5 408.8h308.1c2.3 0 4.2 1.8 4.2 4.2 0 2.3-1.9 4.2-4.2 4.2h-308.1c-2.4 0-4.3-1.9-4.3-4.2 0-2.4 1.9-4.2 4.3-4.2z"/>
			<path fill-rule="evenodd" class="s154" d="m147.4 424.3h256.2c2.3 0 4.1 1.9 4.1 4.2 0 2.3-1.8 4.1-4.1 4.1h-256.2c-2.3 0-4.1-1.8-4.1-4.1 0-2.3 1.8-4.2 4.1-4.2z"/>
			<path fill-rule="evenodd" class="s155" d="m122.4 414.7h292c2.3 0 4.2 1.9 4.2 4.2 0 2.3-1.9 4.1-4.2 4.1h-292c-2.3 0-4.1-1.8-4.1-4.1 0-2.3 1.8-4.2 4.1-4.2z"/>
			<path fill-rule="evenodd" class="s156" d="m126.2 420h264.9c2.3 0 4.3 2 4.3 4.4 0 2.3-2 4.3-4.3 4.3h-264.9c-2.4 0-4.3-2-4.3-4.3 0-2.4 1.9-4.4 4.3-4.4z"/>
			<path fill-rule="evenodd" class="s157" d="m143.6 420.4h240.3c3.2 0 5.8 2.6 5.8 5.8 0 3.2-2.6 5.8-5.8 5.8h-240.3c-3.2 0-5.8-2.6-5.8-5.8 0-3.2 2.6-5.8 5.8-5.8z"/>
			<path fill-rule="evenodd" class="s158" d="m171.2 439.7h190.5c2.9 0 5.2 2.3 5.2 5.1 0 2.9-2.3 5.2-5.2 5.2h-190.5c-2.9 0-5.2-2.3-5.2-5.2 0-2.8 2.3-5.1 5.2-5.1z"/>
			<path fill-rule="evenodd" class="s159" d="m156.8 424.3h228.4c2.8 0 5 2.2 5 4.9 0 2.8-2.2 5-5 5h-228.4c-2.7 0-4.9-2.2-4.9-5 0-2.7 2.2-4.9 4.9-4.9z"/>
			<path fill-rule="evenodd" class="s160" d="m190.1 439.4h162.8c2.7 0 5 2.3 5 5.1 0 2.8-2.3 5-5 5h-162.8c-2.8 0-5.1-2.2-5.1-5 0-2.8 2.3-5.1 5.1-5.1z"/>
			<path fill-rule="evenodd" class="s161" d="m177.3 442.6h181.4c2.8 0 5.2 2.3 5.2 5.1v0.1c0 2.8-2.4 5.1-5.2 5.1h-181.4c-2.9 0-5.2-2.3-5.2-5.1v-0.1c0-2.8 2.3-5.1 5.2-5.1z"/>
			<path fill-rule="evenodd" class="s162" d="m171.5 439.4h161.4c2.6 0 4.7 2.1 4.7 4.8 0 2.6-2.1 4.8-4.7 4.8h-161.4c-2.7 0-4.8-2.2-4.8-4.8 0-2.7 2.1-4.8 4.8-4.8z"/>
			<path fill-rule="evenodd" class="s163" d="m177.7 447.4h178.1c2.9 0 5.3 2.3 5.3 5.3 0 2.9-2.4 5.3-5.3 5.3h-178.1c-2.9 0-5.3-2.4-5.3-5.3 0-3 2.4-5.3 5.3-5.3z"/>
			<path fill-rule="evenodd" class="s164" d="m151 447h262.2c2.9 0 5.3 2.4 5.3 5.4 0 3-2.4 5.4-5.3 5.4h-262.2c-3 0-5.4-2.4-5.4-5.4 0-3 2.4-5.4 5.4-5.4z"/>
			<path fill-rule="evenodd" class="s165" d="m173.5 462.5h167.2c2.6 0 4.7 2.2 4.7 4.8 0 2.6-2.1 4.7-4.7 4.7h-167.2c-2.6 0-4.7-2.1-4.7-4.7 0-2.6 2.1-4.8 4.7-4.8z"/>
			<path fill-rule="evenodd" class="s166" d="m210.4 460.1h143.1c3 0 5.5 2.4 5.5 5.5 0 3-2.5 5.5-5.5 5.5h-143.1c-3.1 0-5.5-2.5-5.5-5.5 0-3.1 2.4-5.5 5.5-5.5z"/>
			<path fill-rule="evenodd" class="s167" d="m159.1 455.3h205.6c2 0 3.7 1.6 3.7 3.7 0 2.1-1.7 3.7-3.7 3.7h-205.6c-2.1 0-3.8-1.6-3.8-3.7 0-2.1 1.7-3.7 3.8-3.7z"/>
			<path fill-rule="evenodd" class="s168" d="m254.8 471h14.3c3 0 5.5 2.5 5.5 5.5 0 3.1-2.5 5.5-5.5 5.5h-14.3c-3 0-5.5-2.4-5.5-5.5 0-3 2.5-5.5 5.5-5.5z"/>
			<path fill-rule="evenodd" class="s169" d="m187.3 466.8h185.9c3 0 5.5 2.4 5.5 5.4 0 3-2.5 5.5-5.5 5.5h-185.9c-3 0-5.4-2.5-5.4-5.5 0-3 2.4-5.4 5.4-5.4z"/>
			<path fill-rule="evenodd" class="s170" d="m269.2 474.6h1.2c3 0 5.4 2.5 5.4 5.5 0 3-2.4 5.4-5.4 5.4h-1.2c-3 0-5.4-2.4-5.4-5.4 0-3 2.4-5.5 5.4-5.5z"/>
			<path fill-rule="evenodd" class="s171" d="m273.7 471.4h1.1c3 0 5.4 2.4 5.4 5.4 0 3-2.4 5.5-5.4 5.5h-1.1c-3 0-5.5-2.5-5.5-5.5 0-3 2.5-5.4 5.5-5.4z"/>
			<path fill-rule="evenodd" class="s172" d="m268.6 475.2h5c2.7 0 4.8 2.2 4.8 4.8 0 2.7-2.1 4.9-4.8 4.9h-5c-2.7 0-4.8-2.2-4.8-4.9 0-2.6 2.1-4.8 4.8-4.8z"/>
			<path fill-rule="evenodd" class="s173" d="m270.1 482h4.8c2 0 3.6 1.7 3.6 3.7 0 2-1.6 3.6-3.6 3.6h-4.8c-2 0-3.6-1.6-3.6-3.6 0-2 1.6-3.7 3.6-3.7z"/>
			<path fill-rule="evenodd" class="s174" d="m251.5 478.7h20.2c2.9 0 5.3 2.4 5.3 5.3 0 2.9-2.4 5.2-5.3 5.2h-20.2c-2.9 0-5.3-2.3-5.3-5.2 0-2.9 2.4-5.3 5.3-5.3z"/>
			<path fill-rule="evenodd" class="s175" d="m268.3 493.1h5c1.9 0 3.5 1.6 3.5 3.5 0 2-1.6 3.5-3.5 3.5h-5c-1.9 0-3.5-1.5-3.5-3.5 0-1.9 1.6-3.5 3.5-3.5z"/>
			<path fill-rule="evenodd" class="s173" d="m253.8 495.3h5c1.9 0 3.5 1.6 3.5 3.5 0 2-1.6 3.5-3.5 3.5h-5c-1.9 0-3.5-1.5-3.5-3.5 0-1.9 1.6-3.5 3.5-3.5z"/>
			<path fill-rule="evenodd" class="s176" d="m253.5 494.2h3.2c2.4 0 4.4 2 4.4 4.4 0 2.5-2 4.5-4.4 4.5h-3.2c-2.5 0-4.4-2-4.4-4.5 0-2.4 1.9-4.4 4.4-4.4z"/>
			<path fill-rule="evenodd" class="s176" d="m266.6 489.7h3.4c2.4 0 4.3 1.9 4.3 4.3 0 2.4-1.9 4.3-4.3 4.3h-3.4c-2.4 0-4.3-1.9-4.3-4.3 0-2.4 1.9-4.3 4.3-4.3z"/>
			<path fill-rule="evenodd" class="s177" d="m274.6 493.5h5c2 0 3.5 1.5 3.5 3.5 0 1.9-1.5 3.5-3.5 3.5h-5c-1.9 0-3.5-1.6-3.5-3.5 0-2 1.6-3.5 3.5-3.5z"/>
			<path fill-rule="evenodd" class="s178" d="m245.7 505.6h35.1c2.2 0 4 1.8 4 4 0 2.2-1.8 4-4 4h-35.1c-2.2 0-4-1.8-4-4 0-2.2 1.8-4 4-4z"/>
			<path fill-rule="evenodd" class="s179" d="m236.2 507.7h58.5c2.7 0 4.9 2.2 4.9 4.9 0 2.7-2.2 4.8-4.9 4.8h-58.5c-2.6 0-4.8-2.1-4.8-4.8 0-2.7 2.2-4.9 4.8-4.9z"/>
			<path fill-rule="evenodd" class="s180" d="m255.9 506.2h3.6c2.3 0 4.2 1.9 4.2 4.2 0 2.3-1.9 4.2-4.2 4.2h-3.6c-2.3 0-4.2-1.9-4.2-4.2 0-2.3 1.9-4.2 4.2-4.2z"/>
			<path fill-rule="evenodd" class="s40" d="m269.7 507.8h5.2c1.9 0 3.4 1.5 3.4 3.4 0 1.9-1.5 3.4-3.4 3.4h-5.2c-1.9 0-3.4-1.5-3.4-3.4 0-1.9 1.5-3.4 3.4-3.4z"/>
			<path fill-rule="evenodd" class="s181" d="m202.4 511.2h120.2c2.5 0 4.5 2 4.5 4.4 0 2.5-2 4.4-4.5 4.4h-120.2c-2.4 0-4.4-1.9-4.4-4.4 0-2.4 2-4.4 4.4-4.4z"/>
		</g>
		<path fill-rule="evenodd" class="s182" d="m426.8 450.1h44.3c1 0 1.8 0.8 1.8 1.9 0 1-0.8 1.8-1.8 1.8h-44.3c-1.1 0-1.9-0.8-1.9-1.8 0-1.1 0.8-1.9 1.9-1.9z"/>
		<path fill-rule="evenodd" class="s183" d="m674 380.9h19.3c0.9 0 1.7 0.8 1.7 1.7 0 1-0.8 1.8-1.8 1.8h-19.2c-1 0-1.8-0.8-1.8-1.8 0-0.9 0.8-1.7 1.8-1.7z"/>
		<path fill-rule="evenodd" class="s184" d="m483.4 397.8l74.7-0.1c1 0 1.8 0.9 1.8 1.9 0 1-0.8 1.9-1.8 1.9h-74.7c-1 0-1.9-0.9-1.9-1.9 0-1 0.9-1.9 1.9-1.9z"/>
		<path fill-rule="evenodd" class="s185" d="m612.8 243.4h82.5c0.9 0 1.7 0.7 1.7 1.6 0 0.9-0.8 1.7-1.7 1.7h-82.5c-0.9 0-1.7-0.8-1.7-1.7 0-0.9 0.8-1.6 1.7-1.6z"/>
		<path fill-rule="evenodd" class="s186" d="m321.6 267.8h22.4c2.2 0 4 1.7 4 3.9 0 2.2-1.8 4-4 4h-22.4c-2.2 0-4-1.8-4-4 0-2.2 1.8-3.9 4-3.9z"/>
		<path fill-rule="evenodd" class="s187" d="m630.6 323.7h71c0.7 0 1.4 0.6 1.4 1.4 0 0.8-0.7 1.4-1.4 1.4h-71c-0.7 0-1.4-0.6-1.4-1.4 0-0.8 0.7-1.4 1.4-1.4z"/>
		<path fill-rule="evenodd" class="s188" d="m554.6 344.7h44.9c0.6 0 1 0.4 1 1 0 0.6-0.4 1-1 1h-44.9c-0.6 0-1.1-0.4-1.1-1 0-0.6 0.5-1 1.1-1z"/>
		<path fill-rule="evenodd" class="s189" d="m637.7 352.9h50.5c0.8 0 1.3 0.6 1.3 1.3 0 0.8-0.5 1.4-1.3 1.4h-50.5c-0.7 0-1.3-0.6-1.3-1.4 0-0.7 0.6-1.3 1.3-1.3z"/>
		<path fill-rule="evenodd" class="s190" d="m329 378.1h45c0.7 0 1.3 0.6 1.3 1.3 0 0.8-0.6 1.4-1.3 1.4h-45c-0.7 0-1.3-0.6-1.3-1.4 0-0.7 0.6-1.3 1.3-1.3z"/>
		<path fill-rule="evenodd" class="s191" d="m330.2 169.4h18.6c1.3 0 2.3 1.1 2.3 2.3 0 1.3-1 2.3-2.3 2.3h-18.6c-1.3 0-2.3-1-2.3-2.3 0-1.2 1-2.3 2.3-2.3z"/>
		<path fill-rule="evenodd" class="s192" d="m450.7 110.4h85.6c0.7 0 1.2 0.5 1.2 1.2 0 0.6-0.5 1.2-1.2 1.2h-85.6c-0.7 0-1.2-0.6-1.2-1.2 0-0.7 0.5-1.2 1.2-1.2z"/>
		<path fill-rule="evenodd" class="s193" d="m702 225.6h42.8c1.6 0 3 1.3 3 2.9 0 1.6-1.4 2.9-3 2.9h-42.8c-1.6 0-2.9-1.3-2.9-2.9 0-1.6 1.3-2.9 2.9-2.9z"/>
		<path fill-rule="evenodd" class="s194" d="m303.4 208.3h63.4c1.6 0 2.9 1.3 2.9 2.9 0 1.6-1.3 2.9-2.9 2.9h-63.4c-1.6 0-2.8-1.3-2.8-2.9 0-1.6 1.2-2.9 2.8-2.9z"/>
		<path fill-rule="evenodd" class="s195" d="m399.7 284.4h72.4c0.8 0 1.5 0.7 1.5 1.5 0 0.9-0.7 1.5-1.5 1.5h-72.4c-0.9 0-1.6-0.6-1.6-1.5 0-0.8 0.7-1.5 1.6-1.5z"/>
		<path fill-rule="evenodd" class="s196" d="m599 384.8l10.3-0.1c1.8 0 3.3 1.5 3.3 3.4 0 1.8-1.5 3.3-3.4 3.3h-10.2c-1.8 0-3.3-1.5-3.3-3.3 0-1.9 1.5-3.4 3.3-3.4z"/>
		<path fill-rule="evenodd" class="s197" d="m305.1 93.8h79.7c1.4 0 2.6 1.2 2.6 2.6 0 1.4-1.2 2.5-2.6 2.5h-79.7c-1.4 0-2.5-1.1-2.5-2.5 0-1.4 1.1-2.6 2.5-2.6z"/>
		<path fill-rule="evenodd" class="s198" d="m409.1 150.2h33.2c1.8 0 3.3 1.5 3.3 3.4 0 1.8-1.5 3.3-3.3 3.3h-33.2c-1.8 0-3.3-1.5-3.3-3.3 0-1.9 1.5-3.4 3.3-3.4z"/>
		<path fill-rule="evenodd" class="s199" d="m349.5 414.2h62.7c2 0 3.6 1.7 3.6 3.7 0 2.1-1.6 3.7-3.6 3.7h-62.7c-2 0-3.6-1.6-3.6-3.7 0-2 1.6-3.7 3.6-3.7z"/>
		<path fill-rule="evenodd" class="s200" d="m506.6 427.4h45.7c1.9 0 3.4 1.5 3.4 3.4 0 1.9-1.5 3.4-3.4 3.4h-45.7c-1.8 0-3.4-1.5-3.4-3.4 0-1.9 1.6-3.4 3.4-3.4z"/>
		<path fill-rule="evenodd" class="s201" d="m531.8 284.2h34.5c0.7 0 1.3 0.5 1.3 1.2 0 0.7-0.6 1.3-1.3 1.3h-34.5c-0.7 0-1.3-0.6-1.3-1.3 0-0.7 0.6-1.2 1.3-1.2z"/>
		<path fill-rule="evenodd" class="s202" d="m551.9 338.7h37.1c0.6 0 1.1 0.5 1.1 1.2 0 0.6-0.5 1.1-1.1 1.1h-37.1c-0.7 0-1.2-0.5-1.2-1.1 0-0.7 0.5-1.2 1.2-1.2z"/>
		<path fill-rule="evenodd" class="s203" d="m669.7 448.5h83.5c0.7 0 1.3 0.5 1.3 1.2 0 0.7-0.6 1.2-1.3 1.2h-83.5c-0.6 0-1.2-0.5-1.2-1.2 0-0.7 0.6-1.2 1.2-1.2z"/>
		<path fill-rule="evenodd" class="s204" d="m632.6 438.1h17.5c1.6 0 2.9 1.3 2.9 2.9 0 1.5-1.3 2.8-2.9 2.8h-17.5c-1.5 0-2.8-1.3-2.8-2.8 0-1.6 1.3-2.9 2.8-2.9z"/>
		<path fill-rule="evenodd" class="s205" d="m336.3 216.5h36.4c1.5 0 2.7 1.2 2.7 2.7 0 1.5-1.2 2.7-2.7 2.7h-36.4c-1.5 0-2.7-1.2-2.7-2.7 0-1.5 1.2-2.7 2.7-2.7z"/>
		<path fill-rule="evenodd" class="s206" d="m677.7 366.5h51.6c1.5 0 2.6 1.1 2.6 2.5 0 1.5-1.1 2.6-2.6 2.6h-51.6c-1.4 0-2.6-1.1-2.6-2.6 0-1.4 1.2-2.5 2.6-2.5z"/>
		<path fill-rule="evenodd" class="s207" d="m391.1 356.1h46.6c1.2 0 2.2 1 2.2 2.1v0.1c0 1.1-1 2.1-2.2 2.1h-46.6c-1.2 0-2.1-1-2.1-2.1v-0.1c0-1.1 0.9-2.1 2.1-2.1z"/>
		<path fill-rule="evenodd" class="s208" d="m422.3 454.6h26.8c2.1 0 3.8 1.7 3.8 3.8 0 2.1-1.7 3.7-3.8 3.7h-26.8c-2 0-3.7-1.6-3.7-3.7 0-2.1 1.7-3.8 3.7-3.8z"/>
		<path fill-rule="evenodd" class="s209" d="m648 417.7h44.2c0.6 0 1.2 0.6 1.2 1.3 0 0.7-0.6 1.2-1.2 1.2h-44.2c-0.7 0-1.3-0.5-1.3-1.2 0-0.7 0.6-1.3 1.3-1.3z"/>
		<path fill-rule="evenodd" class="s210" d="m432.9 102.6h46.9c2 0 3.7 1.6 3.7 3.6 0 2.1-1.7 3.7-3.7 3.7h-46.9c-2.1 0-3.7-1.6-3.7-3.7 0-2 1.6-3.6 3.7-3.6z"/>
		<path fill-rule="evenodd" class="s211" d="m669.8 378h49c0.8 0 1.4 0.6 1.4 1.4 0 0.7-0.6 1.4-1.4 1.4h-49c-0.7 0-1.3-0.7-1.3-1.4 0-0.8 0.6-1.4 1.3-1.4z"/>
		<path fill-rule="evenodd" class="s212" d="m569.4 287.4h34c1.9 0 3.4 1.5 3.4 3.4 0 1.9-1.5 3.4-3.4 3.4h-34c-1.9 0-3.4-1.5-3.4-3.4 0-1.9 1.5-3.4 3.4-3.4z"/>
		<path fill-rule="evenodd" class="s213" d="m333.1 455.9h62.9c1.4 0 2.6 1.1 2.6 2.5 0 1.4-1.2 2.6-2.6 2.6h-62.9c-1.5 0-2.6-1.2-2.6-2.6 0-1.4 1.1-2.5 2.6-2.5z"/>
		<path fill-rule="evenodd" class="s214" d="m326.8 320.8h41c1.7 0 3.1 1.4 3.1 3 0 1.7-1.4 3.1-3.1 3.1h-41c-1.7 0-3-1.4-3-3.1 0-1.6 1.3-3 3-3z"/>
		<path fill-rule="evenodd" class="s215" d="m595.3 146.8h82.8c1.3 0 2.3 1 2.3 2.3 0 1.3-1 2.3-2.3 2.3h-82.8c-1.2 0-2.3-1-2.3-2.3 0-1.3 1.1-2.3 2.3-2.3z"/>
		<path fill-rule="evenodd" class="s216" d="m356.9 140.2h30.9c1.7 0 3.1 1.4 3.1 3.2 0 1.7-1.4 3.1-3.1 3.1h-30.9c-1.8 0-3.2-1.4-3.2-3.1 0-1.8 1.4-3.2 3.2-3.2z"/>
		<path fill-rule="evenodd" class="s217" d="m267 477c-121.7 0-220-98.3-220-220 0-121.7 98.3-220 220-220 121.7 0 220 98.3 220 220 0 121.7-98.3 220-220 220z"/>
		<path fill-rule="evenodd" class="s218" d="m267 537c-154.8 0-280-125.2-280-280 0-154.8 125.2-280 280-280 154.8 0 280 125.2 280 280 0 154.8-125.2 280-280 280z"/>
		<path fill-rule="evenodd" class="s219" d="m267 617c-199.1 0-360-160.9-360-360 0-199.1 160.9-360 360-360 199.1 0 360 160.9 360 360 0 199.1-160.9 360-360 360z"/>
	</g>
</svg>